<?xml version="1.0" encoding="UTF-8" standalone="no"?>
<!-- Created with Inkscape (http://www.inkscape.org/) -->
<svg
   xmlns:svg="http://www.w3.org/2000/svg"
   xmlns="http://www.w3.org/2000/svg"
   version="1.0"
   width="744.09448"
   height="1052.3622"
   id="svg2">
  <defs
     id="defs4" />
  <g
     id="layer1">
    <path
       d="M 67.921968,281.45984 C 49.114469,281.75229 25.840308,300.60128 21.156388,333.38881 L 40.039638,333.38881 C 40.039638,316.53239 47.563899,292.14952 62.611049,287.11007 L 64.816538,333.38881 L 71.912508,333.38881 L 74.014758,287.08056 C 89.129278,292.04446 96.689428,316.49469 96.689428,333.38881 C 102.12342,333.38881 107.23908,333.38881 110.85188,333.38881 C 112.05614,333.38881 115.5727,333.38881 115.5727,333.38881 L 125.05858,333.38881 L 129.73514,333.38881 L 186.38492,333.38881 L 200.54737,333.38881 C 201.75162,333.38881 205.26818,333.38881 205.26818,333.38881 L 212.03221,333.38881 L 219.43062,333.38881 C 219.43062,314.50556 228.87226,286.18065 247.75552,286.18065 C 266.63878,286.18065 276.08041,314.50556 276.08041,333.38881 C 283.32574,333.38881 294.96369,333.38881 294.96369,333.38881 L 379.93837,333.38881 C 379.51752,337.02889 379.21302,343.12154 379.93837,347.55126 L 400.48128,347.55126 C 399.30846,343.30354 398.97846,338.67788 398.82165,333.38881 L 474.35469,333.38881 L 488.51713,333.38881 L 559.32936,333.38881 C 558.90854,337.02889 558.604,343.12154 559.32936,347.55126 L 579.87227,347.55126 C 578.69944,343.30354 578.36941,338.67788 578.2126,333.38881 C 578.2126,314.50556 587.65423,286.18065 606.53751,286.18065 C 606.53751,286.18065 606.53751,281.45984 606.53751,281.45984 C 590.52468,281.45984 571.11662,295.0362 562.70767,319.31488 L 560.67184,319.31488 C 552.26294,295.0362 532.8548,281.45984 516.84204,281.45984 C 500.82925,281.45984 481.42114,295.0362 473.0122,319.31488 L 470.97637,319.31488 C 462.5674,295.0362 443.15928,281.45984 427.14653,281.45984 C 411.13374,281.45984 391.72564,295.0362 383.31669,319.31488 L 381.28085,319.31488 C 372.87188,295.0362 353.4638,281.45984 337.45101,281.45984 C 321.43822,281.45984 302.03011,295.0362 293.62121,319.31488 L 291.58534,319.31488 C 283.17642,295.0362 263.76829,281.45984 247.75552,281.45984 C 231.74562,281.45984 212.33709,295.02973 203.92569,319.30013 L 201.88985,319.30013 C 193.47843,295.02973 174.06991,281.45984 158.06002,281.45984 C 141.36301,281.45984 120.97302,296.2225 113.21228,322.48668 C 105.45155,296.2225 85.061568,281.45984 68.364538,281.45984 C 68.217008,281.45984 68.070048,281.45753 67.921968,281.45984 z M 568.7267,281.45984 C 565.13946,281.48255 562.23563,284.40209 562.23563,287.98785 C 562.23563,291.58767 565.1643,294.50846 568.77097,294.50849 C 572.37765,294.50846 575.30636,291.58764 575.30636,287.98785 C 575.30636,284.38803 572.37765,281.45984 568.77097,281.45984 C 568.75687,281.45984 568.7408,281.45975 568.7267,281.45984 z M 634.4198,281.45984 C 615.61233,281.75229 592.33818,300.60128 587.65423,333.38881 L 606.53751,333.38881 C 606.53751,314.50556 615.97911,286.18065 634.86238,286.18065 C 653.74566,286.18065 663.18727,314.50556 663.18727,333.38881 C 668.62125,333.38881 673.73694,333.38881 677.34974,333.38881 C 676.92888,337.02889 676.62438,343.12154 677.34974,347.55126 L 697.89265,347.55126 C 696.71982,343.30354 696.38979,338.67788 696.23298,333.38881 L 719.76331,333.38881 L 719.76331,319.30013 L 697.73776,319.30013 C 701.08451,302.95913 710.02246,286.18065 724.55789,286.18065 C 724.55789,286.18065 724.55789,281.45984 724.55789,281.45984 C 708.54801,281.45984 689.13948,295.02973 680.72805,319.30013 L 678.69222,319.30013 C 670.2808,295.02973 650.87227,281.45984 634.86238,281.45984 C 634.71486,281.45984 634.56791,281.45753 634.4198,281.45984 z M 157.61744,286.18065 C 157.76381,286.17722 157.9125,286.18065 158.06002,286.18065 C 172.59544,286.18065 181.53341,302.95913 184.88016,319.30013 L 131.2399,319.30013 C 134.55268,303.12496 143.34197,286.51612 157.61744,286.18065 z M 337.00846,286.18065 C 337.15483,286.17722 337.30349,286.18065 337.45101,286.18065 C 351.99102,286.18065 360.93425,302.96899 364.27853,319.31488 L 310.6235,319.31488 C 313.93385,303.13485 322.72841,286.51622 337.00846,286.18065 z M 426.70394,286.18065 C 426.85031,286.17722 426.999,286.18065 427.14653,286.18065 C 441.68655,286.18065 450.62976,302.96899 453.97403,319.31488 L 400.31899,319.31488 C 403.62938,303.13483 412.42389,286.51622 426.70394,286.18065 z M 516.39945,286.18065 C 516.54582,286.17722 516.69451,286.18065 516.84204,286.18065 C 531.38205,286.18065 540.32527,302.96899 543.66954,319.31488 L 490.01451,319.31488 C 493.32486,303.13485 502.11941,286.51622 516.39945,286.18065 z"
       id="path5074"
       style="fill:#45456c;fill-opacity:1;fill-rule:evenodd;stroke:#ffffff;stroke-width:2.36040783;stroke-linecap:butt;stroke-linejoin:miter;marker-start:none;stroke-miterlimit:4;stroke-dasharray:none;stroke-opacity:1" />
  </g>
</svg>
